<mxfile host="app.diagrams.net" modified="2021-10-21T16:10:10.814Z" agent="5.0 (Macintosh; Intel Mac OS X 10_15_7) AppleWebKit/537.36 (KHTML, like Gecko) Chrome/93.0.4577.82 Safari/537.36" etag="54v81ZJELXPF7hgaUGit" version="15.5.8" type="github">
  <diagram id="C5RBs43oDa-KdzZeNtuy" name="Page-1">
    <mxGraphModel dx="1164" dy="1851" grid="1" gridSize="10" guides="1" tooltips="1" connect="1" arrows="1" fold="1" page="1" pageScale="1" pageWidth="827" pageHeight="1169" math="0" shadow="0">
      <root>
        <mxCell id="WIyWlLk6GJQsqaUBKTNV-0" />
        <mxCell id="WIyWlLk6GJQsqaUBKTNV-1" parent="WIyWlLk6GJQsqaUBKTNV-0" />
        <mxCell id="FtbU7RMwqLc9TJ6ZdzSu-39" style="edgeStyle=orthogonalEdgeStyle;rounded=0;orthogonalLoop=1;jettySize=auto;html=1;exitX=0.5;exitY=1;exitDx=0;exitDy=0;entryX=0.5;entryY=0;entryDx=0;entryDy=0;endArrow=block;endFill=0;" edge="1" parent="WIyWlLk6GJQsqaUBKTNV-1" source="FtbU7RMwqLc9TJ6ZdzSu-6" target="FtbU7RMwqLc9TJ6ZdzSu-38">
          <mxGeometry relative="1" as="geometry" />
        </mxCell>
        <mxCell id="FtbU7RMwqLc9TJ6ZdzSu-6" value="新人报道登记" style="rounded=1;whiteSpace=wrap;html=1;fontSize=12;glass=0;strokeWidth=1;shadow=0;" vertex="1" parent="WIyWlLk6GJQsqaUBKTNV-1">
          <mxGeometry x="251" y="-130" width="120" height="40" as="geometry" />
        </mxCell>
        <mxCell id="FtbU7RMwqLc9TJ6ZdzSu-8" value="" style="ellipse;fillColor=#000000;strokeColor=none;" vertex="1" parent="WIyWlLk6GJQsqaUBKTNV-1">
          <mxGeometry x="296" y="-210" width="30" height="30" as="geometry" />
        </mxCell>
        <mxCell id="FtbU7RMwqLc9TJ6ZdzSu-9" value="" style="rounded=0;html=1;jettySize=auto;orthogonalLoop=1;fontSize=11;endArrow=block;endFill=0;endSize=8;strokeWidth=1;shadow=0;labelBackgroundColor=none;edgeStyle=orthogonalEdgeStyle;exitX=0.5;exitY=1;exitDx=0;exitDy=0;entryX=0.5;entryY=0;entryDx=0;entryDy=0;" edge="1" parent="WIyWlLk6GJQsqaUBKTNV-1" source="FtbU7RMwqLc9TJ6ZdzSu-8" target="FtbU7RMwqLc9TJ6ZdzSu-6">
          <mxGeometry x="90" y="-250" as="geometry">
            <mxPoint x="321" y="-120" as="sourcePoint" />
            <mxPoint x="501" y="-150" as="targetPoint" />
          </mxGeometry>
        </mxCell>
        <mxCell id="FtbU7RMwqLc9TJ6ZdzSu-10" value="签合同" style="rounded=1;whiteSpace=wrap;html=1;fontSize=12;glass=0;strokeWidth=1;shadow=0;" vertex="1" parent="WIyWlLk6GJQsqaUBKTNV-1">
          <mxGeometry x="251" y="70" width="120" height="40" as="geometry" />
        </mxCell>
        <mxCell id="FtbU7RMwqLc9TJ6ZdzSu-13" style="edgeStyle=orthogonalEdgeStyle;rounded=0;orthogonalLoop=1;jettySize=auto;html=1;entryX=0.5;entryY=0;entryDx=0;entryDy=0;endArrow=block;endFill=0;strokeWidth=1;" edge="1" parent="WIyWlLk6GJQsqaUBKTNV-1" source="FtbU7RMwqLc9TJ6ZdzSu-10" target="FtbU7RMwqLc9TJ6ZdzSu-18">
          <mxGeometry x="90" y="-250" as="geometry">
            <mxPoint x="311" y="120" as="targetPoint" />
          </mxGeometry>
        </mxCell>
        <mxCell id="FtbU7RMwqLc9TJ6ZdzSu-52" style="edgeStyle=orthogonalEdgeStyle;rounded=0;orthogonalLoop=1;jettySize=auto;html=1;entryX=0.5;entryY=0;entryDx=0;entryDy=0;endArrow=block;endFill=0;" edge="1" parent="WIyWlLk6GJQsqaUBKTNV-1" source="FtbU7RMwqLc9TJ6ZdzSu-18" target="FtbU7RMwqLc9TJ6ZdzSu-51">
          <mxGeometry relative="1" as="geometry" />
        </mxCell>
        <mxCell id="FtbU7RMwqLc9TJ6ZdzSu-18" value="领工牌" style="rounded=1;whiteSpace=wrap;html=1;fontSize=12;glass=0;strokeWidth=1;shadow=0;" vertex="1" parent="WIyWlLk6GJQsqaUBKTNV-1">
          <mxGeometry x="251" y="170" width="120" height="40" as="geometry" />
        </mxCell>
        <mxCell id="FtbU7RMwqLc9TJ6ZdzSu-63" style="edgeStyle=orthogonalEdgeStyle;rounded=0;orthogonalLoop=1;jettySize=auto;html=1;entryX=0.5;entryY=0;entryDx=0;entryDy=0;endArrow=block;endFill=0;" edge="1" parent="WIyWlLk6GJQsqaUBKTNV-1" source="FtbU7RMwqLc9TJ6ZdzSu-21" target="FtbU7RMwqLc9TJ6ZdzSu-42">
          <mxGeometry relative="1" as="geometry">
            <mxPoint x="311" y="450" as="targetPoint" />
          </mxGeometry>
        </mxCell>
        <mxCell id="FtbU7RMwqLc9TJ6ZdzSu-21" value="领电脑" style="rounded=1;whiteSpace=wrap;html=1;fontSize=12;glass=0;strokeWidth=1;shadow=0;" vertex="1" parent="WIyWlLk6GJQsqaUBKTNV-1">
          <mxGeometry x="251" y="360" width="120" height="40" as="geometry" />
        </mxCell>
        <mxCell id="FtbU7RMwqLc9TJ6ZdzSu-32" value="去工位入座见领导" style="rounded=1;whiteSpace=wrap;html=1;fontSize=12;glass=0;strokeWidth=1;shadow=0;" vertex="1" parent="WIyWlLk6GJQsqaUBKTNV-1">
          <mxGeometry x="251" y="580" width="120" height="40" as="geometry" />
        </mxCell>
        <mxCell id="FtbU7RMwqLc9TJ6ZdzSu-33" style="edgeStyle=elbowEdgeStyle;rounded=0;orthogonalLoop=1;jettySize=auto;html=1;endArrow=block;endFill=0;strokeWidth=1;exitX=1;exitY=0.5;exitDx=0;exitDy=0;entryX=0;entryY=0.5;entryDx=0;entryDy=0;" edge="1" parent="WIyWlLk6GJQsqaUBKTNV-1" source="FtbU7RMwqLc9TJ6ZdzSu-38" target="FtbU7RMwqLc9TJ6ZdzSu-46">
          <mxGeometry x="90" y="-250" as="geometry">
            <Array as="points" />
            <mxPoint x="520" y="340" as="sourcePoint" />
            <mxPoint x="440" y="-10" as="targetPoint" />
          </mxGeometry>
        </mxCell>
        <mxCell id="FtbU7RMwqLc9TJ6ZdzSu-34" value="" style="ellipse;html=1;shape=endState;fillColor=#000000;strokeColor=#000000;" vertex="1" parent="WIyWlLk6GJQsqaUBKTNV-1">
          <mxGeometry x="296" y="690" width="30" height="30" as="geometry" />
        </mxCell>
        <mxCell id="FtbU7RMwqLc9TJ6ZdzSu-35" style="edgeStyle=elbowEdgeStyle;rounded=0;orthogonalLoop=1;jettySize=auto;elbow=vertical;html=1;exitX=0.5;exitY=1;exitDx=0;exitDy=0;endArrow=block;endFill=0;strokeWidth=1;" edge="1" parent="WIyWlLk6GJQsqaUBKTNV-1" source="FtbU7RMwqLc9TJ6ZdzSu-32" target="FtbU7RMwqLc9TJ6ZdzSu-34">
          <mxGeometry x="90" y="-150" as="geometry" />
        </mxCell>
        <mxCell id="FtbU7RMwqLc9TJ6ZdzSu-40" style="edgeStyle=orthogonalEdgeStyle;rounded=0;orthogonalLoop=1;jettySize=auto;html=1;exitX=0.5;exitY=1;exitDx=0;exitDy=0;endArrow=block;endFill=0;" edge="1" parent="WIyWlLk6GJQsqaUBKTNV-1" source="FtbU7RMwqLc9TJ6ZdzSu-38" target="FtbU7RMwqLc9TJ6ZdzSu-10">
          <mxGeometry relative="1" as="geometry" />
        </mxCell>
        <mxCell id="FtbU7RMwqLc9TJ6ZdzSu-38" value="" style="rhombus;whiteSpace=wrap;html=1;" vertex="1" parent="WIyWlLk6GJQsqaUBKTNV-1">
          <mxGeometry x="290.5" y="-30" width="41" height="40" as="geometry" />
        </mxCell>
        <mxCell id="FtbU7RMwqLc9TJ6ZdzSu-41" value="新人身份验证是否通过？" style="text;html=1;strokeColor=none;fillColor=none;align=center;verticalAlign=middle;whiteSpace=wrap;rounded=0;" vertex="1" parent="WIyWlLk6GJQsqaUBKTNV-1">
          <mxGeometry x="150.5" y="-22.5" width="140" height="25" as="geometry" />
        </mxCell>
        <mxCell id="FtbU7RMwqLc9TJ6ZdzSu-50" style="edgeStyle=orthogonalEdgeStyle;rounded=0;orthogonalLoop=1;jettySize=auto;html=1;entryX=0.5;entryY=0;entryDx=0;entryDy=0;endArrow=block;endFill=0;" edge="1" parent="WIyWlLk6GJQsqaUBKTNV-1" source="FtbU7RMwqLc9TJ6ZdzSu-42" target="FtbU7RMwqLc9TJ6ZdzSu-32">
          <mxGeometry relative="1" as="geometry" />
        </mxCell>
        <mxCell id="FtbU7RMwqLc9TJ6ZdzSu-42" value="领办公用品" style="rounded=1;whiteSpace=wrap;html=1;fontSize=12;glass=0;strokeWidth=1;shadow=0;" vertex="1" parent="WIyWlLk6GJQsqaUBKTNV-1">
          <mxGeometry x="251" y="460" width="120" height="40" as="geometry" />
        </mxCell>
        <mxCell id="FtbU7RMwqLc9TJ6ZdzSu-44" value="[ 否 ]" style="text;html=1;strokeColor=none;fillColor=none;align=center;verticalAlign=middle;whiteSpace=wrap;rounded=0;" vertex="1" parent="WIyWlLk6GJQsqaUBKTNV-1">
          <mxGeometry x="331.5" y="-40" width="60" height="30" as="geometry" />
        </mxCell>
        <mxCell id="FtbU7RMwqLc9TJ6ZdzSu-45" value="[ 是 ]" style="text;html=1;strokeColor=none;fillColor=none;align=center;verticalAlign=middle;whiteSpace=wrap;rounded=0;" vertex="1" parent="WIyWlLk6GJQsqaUBKTNV-1">
          <mxGeometry x="305" y="20" width="60" height="30" as="geometry" />
        </mxCell>
        <mxCell id="FtbU7RMwqLc9TJ6ZdzSu-48" style="edgeStyle=orthogonalEdgeStyle;rounded=0;orthogonalLoop=1;jettySize=auto;html=1;exitX=1;exitY=0.5;exitDx=0;exitDy=0;endArrow=block;endFill=0;entryX=1;entryY=0.5;entryDx=0;entryDy=0;" edge="1" parent="WIyWlLk6GJQsqaUBKTNV-1" source="FtbU7RMwqLc9TJ6ZdzSu-46" target="FtbU7RMwqLc9TJ6ZdzSu-34">
          <mxGeometry relative="1" as="geometry">
            <mxPoint x="620" y="530" as="targetPoint" />
          </mxGeometry>
        </mxCell>
        <mxCell id="FtbU7RMwqLc9TJ6ZdzSu-46" value="HR 介入处理" style="rounded=1;whiteSpace=wrap;html=1;fontSize=12;glass=0;strokeWidth=1;shadow=0;" vertex="1" parent="WIyWlLk6GJQsqaUBKTNV-1">
          <mxGeometry x="430" y="-30" width="120" height="40" as="geometry" />
        </mxCell>
        <mxCell id="FtbU7RMwqLc9TJ6ZdzSu-53" style="edgeStyle=orthogonalEdgeStyle;rounded=0;orthogonalLoop=1;jettySize=auto;html=1;entryX=0.5;entryY=0;entryDx=0;entryDy=0;endArrow=block;endFill=0;" edge="1" parent="WIyWlLk6GJQsqaUBKTNV-1" source="FtbU7RMwqLc9TJ6ZdzSu-51" target="FtbU7RMwqLc9TJ6ZdzSu-21">
          <mxGeometry relative="1" as="geometry" />
        </mxCell>
        <mxCell id="FtbU7RMwqLc9TJ6ZdzSu-57" style="edgeStyle=orthogonalEdgeStyle;rounded=0;orthogonalLoop=1;jettySize=auto;html=1;exitX=1;exitY=0.5;exitDx=0;exitDy=0;entryX=0;entryY=0.5;entryDx=0;entryDy=0;endArrow=block;endFill=0;" edge="1" parent="WIyWlLk6GJQsqaUBKTNV-1" source="FtbU7RMwqLc9TJ6ZdzSu-51" target="FtbU7RMwqLc9TJ6ZdzSu-56">
          <mxGeometry relative="1" as="geometry" />
        </mxCell>
        <mxCell id="FtbU7RMwqLc9TJ6ZdzSu-51" value="" style="rhombus;whiteSpace=wrap;html=1;" vertex="1" parent="WIyWlLk6GJQsqaUBKTNV-1">
          <mxGeometry x="290.5" y="270" width="41" height="40" as="geometry" />
        </mxCell>
        <mxCell id="FtbU7RMwqLc9TJ6ZdzSu-54" value="对应电脑库存是否充足" style="text;html=1;align=center;verticalAlign=middle;resizable=0;points=[];autosize=1;strokeColor=none;fillColor=none;" vertex="1" parent="WIyWlLk6GJQsqaUBKTNV-1">
          <mxGeometry x="150.5" y="280" width="140" height="20" as="geometry" />
        </mxCell>
        <mxCell id="FtbU7RMwqLc9TJ6ZdzSu-55" value="是" style="text;html=1;align=center;verticalAlign=middle;resizable=0;points=[];autosize=1;strokeColor=none;fillColor=none;" vertex="1" parent="WIyWlLk6GJQsqaUBKTNV-1">
          <mxGeometry x="315" y="320" width="30" height="20" as="geometry" />
        </mxCell>
        <mxCell id="FtbU7RMwqLc9TJ6ZdzSu-69" style="edgeStyle=orthogonalEdgeStyle;rounded=0;orthogonalLoop=1;jettySize=auto;html=1;exitX=1;exitY=0.5;exitDx=0;exitDy=0;endArrow=none;endFill=0;" edge="1" parent="WIyWlLk6GJQsqaUBKTNV-1" source="FtbU7RMwqLc9TJ6ZdzSu-56">
          <mxGeometry relative="1" as="geometry">
            <mxPoint x="570" y="290" as="targetPoint" />
          </mxGeometry>
        </mxCell>
        <mxCell id="FtbU7RMwqLc9TJ6ZdzSu-56" value="IT 介入处理" style="rounded=1;whiteSpace=wrap;html=1;fontSize=12;glass=0;strokeWidth=1;shadow=0;" vertex="1" parent="WIyWlLk6GJQsqaUBKTNV-1">
          <mxGeometry x="414" y="270" width="116" height="40" as="geometry" />
        </mxCell>
        <mxCell id="FtbU7RMwqLc9TJ6ZdzSu-58" value="否" style="text;html=1;align=center;verticalAlign=middle;resizable=0;points=[];autosize=1;strokeColor=none;fillColor=none;" vertex="1" parent="WIyWlLk6GJQsqaUBKTNV-1">
          <mxGeometry x="345" y="270" width="30" height="20" as="geometry" />
        </mxCell>
      </root>
    </mxGraphModel>
  </diagram>
</mxfile>
